<svg id="my-svg" width="100%" xmlns="http://www.w3.org/2000/svg" xmlns:xlink="http://www.w3.org/1999/xlink" class="flowchart" style="max-width: 1632.92px; background-color: transparent;" viewBox="0 0 1632.921875 295.98974609375" role="graphics-document document" aria-roledescription="flowchart-v2"><style>#my-svg{font-family:"trebuchet ms",verdana,arial,sans-serif;font-size:16px;fill:#333;}@keyframes edge-animation-frame{from{stroke-dashoffset:0;}}@keyframes dash{to{stroke-dashoffset:0;}}#my-svg .edge-animation-slow{stroke-dasharray:9,5!important;stroke-dashoffset:900;animation:dash 50s linear infinite;stroke-linecap:round;}#my-svg .edge-animation-fast{stroke-dasharray:9,5!important;stroke-dashoffset:900;animation:dash 20s linear infinite;stroke-linecap:round;}#my-svg .error-icon{fill:#552222;}#my-svg .error-text{fill:#552222;stroke:#552222;}#my-svg .edge-thickness-normal{stroke-width:1px;}#my-svg .edge-thickness-thick{stroke-width:3.5px;}#my-svg .edge-pattern-solid{stroke-dasharray:0;}#my-svg .edge-thickness-invisible{stroke-width:0;fill:none;}#my-svg .edge-pattern-dashed{stroke-dasharray:3;}#my-svg .edge-pattern-dotted{stroke-dasharray:2;}#my-svg .marker{fill:#333333;stroke:#333333;}#my-svg .marker.cross{stroke:#333333;}#my-svg svg{font-family:"trebuchet ms",verdana,arial,sans-serif;font-size:16px;}#my-svg p{margin:0;}#my-svg .label{font-family:"trebuchet ms",verdana,arial,sans-serif;color:#333;}#my-svg .cluster-label text{fill:#333;}#my-svg .cluster-label span{color:#333;}#my-svg .cluster-label span p{background-color:transparent;}#my-svg .label text,#my-svg span{fill:#333;color:#333;}#my-svg .node rect,#my-svg .node circle,#my-svg .node ellipse,#my-svg .node polygon,#my-svg .node path{fill:#ECECFF;stroke:#9370DB;stroke-width:1px;}#my-svg .rough-node .label text,#my-svg .node .label text,#my-svg .image-shape .label,#my-svg .icon-shape .label{text-anchor:middle;}#my-svg .node .katex path{fill:#000;stroke:#000;stroke-width:1px;}#my-svg .rough-node .label,#my-svg .node .label,#my-svg .image-shape .label,#my-svg .icon-shape .label{text-align:center;}#my-svg .node.clickable{cursor:pointer;}#my-svg .root .anchor path{fill:#333333!important;stroke-width:0;stroke:#333333;}#my-svg .arrowheadPath{fill:#333333;}#my-svg .edgePath .path{stroke:#333333;stroke-width:1px;}#my-svg .flowchart-link{stroke:#333333;fill:none;}#my-svg .edgeLabel{background-color:rgba(232,232,232, 0.8);text-align:center;}#my-svg .edgeLabel p{background-color:rgba(232,232,232, 0.8);}#my-svg .edgeLabel rect{opacity:0.5;background-color:rgba(232,232,232, 0.8);fill:rgba(232,232,232, 0.8);}#my-svg .labelBkg{background-color:rgba(232, 232, 232, 0.5);}#my-svg .cluster rect{fill:#ffffde;stroke:#aaaa33;stroke-width:1px;}#my-svg .cluster text{fill:#333;}#my-svg .cluster span{color:#333;}#my-svg div.mermaidTooltip{position:absolute;text-align:center;max-width:200px;padding:2px;font-family:"trebuchet ms",verdana,arial,sans-serif;font-size:12px;background:hsl(80, 100%, 96.2745098039%);border:1px solid #aaaa33;border-radius:2px;pointer-events:none;z-index:100;}#my-svg .flowchartTitleText{text-anchor:middle;font-size:18px;fill:#333;}#my-svg rect.text{fill:none;stroke-width:0;}#my-svg .icon-shape,#my-svg .image-shape{background-color:rgba(232,232,232, 0.8);text-align:center;}#my-svg .icon-shape p,#my-svg .image-shape p{background-color:rgba(232,232,232, 0.8);padding:2px;}#my-svg .icon-shape .label rect,#my-svg .image-shape .label rect{opacity:0.5;background-color:rgba(232,232,232, 0.8);fill:rgba(232,232,232, 0.8);}#my-svg .label-icon{display:inline-block;height:1em;overflow:visible;vertical-align:-0.125em;}#my-svg .node .label-icon path{fill:currentColor;stroke:revert;stroke-width:revert;}#my-svg .node .neo-node{stroke:#9370DB;}#my-svg [data-look="neo"].node rect,#my-svg [data-look="neo"].cluster rect,#my-svg [data-look="neo"].node polygon{stroke:#9370DB;filter:drop-shadow(1px 2px 2px rgba(185, 185, 185, 1));}#my-svg [data-look="neo"].node path{stroke:#9370DB;stroke-width:1px;}#my-svg [data-look="neo"].node .outer-path{filter:drop-shadow(1px 2px 2px rgba(185, 185, 185, 1));}#my-svg [data-look="neo"].node .neo-line path{stroke:#9370DB;filter:none;}#my-svg [data-look="neo"].node circle{stroke:#9370DB;filter:drop-shadow(1px 2px 2px rgba(185, 185, 185, 1));}#my-svg [data-look="neo"].node circle .state-start{fill:#000000;}#my-svg [data-look="neo"].icon-shape .icon{fill:#9370DB;filter:drop-shadow(1px 2px 2px rgba(185, 185, 185, 1));}#my-svg [data-look="neo"].icon-shape .icon-neo path{stroke:#9370DB;filter:drop-shadow(1px 2px 2px rgba(185, 185, 185, 1));}#my-svg :root{--mermaid-font-family:"trebuchet ms",verdana,arial,sans-serif;}#my-svg .person&gt;*{fill:#F59E0B!important;stroke:#0D1117!important;color:#0D1117!important;font-weight:bold!important;}#my-svg .person span{fill:#F59E0B!important;stroke:#0D1117!important;color:#0D1117!important;font-weight:bold!important;}#my-svg .person tspan{fill:#0D1117!important;}#my-svg .system&gt;*{fill:#7C3AED!important;stroke:#0D1117!important;color:#FFFFFF!important;}#my-svg .system span{fill:#7C3AED!important;stroke:#0D1117!important;color:#FFFFFF!important;}#my-svg .system tspan{fill:#FFFFFF!important;}#my-svg .store&gt;*{fill:#10B981!important;stroke:#0D1117!important;color:#0D1117!important;}#my-svg .store span{fill:#10B981!important;stroke:#0D1117!important;color:#0D1117!important;}#my-svg .store tspan{fill:#0D1117!important;}#my-svg .ext&gt;*{fill:#0EA5E9!important;stroke:#0D1117!important;color:#FFFFFF!important;}#my-svg .ext span{fill:#0EA5E9!important;stroke:#0D1117!important;color:#FFFFFF!important;}#my-svg .ext tspan{fill:#FFFFFF!important;}</style><g><marker id="my-svg_flowchart-v2-pointEnd" class="marker flowchart-v2" viewBox="0 0 10 10" refX="5" refY="5" markerUnits="userSpaceOnUse" markerWidth="8" markerHeight="8" orient="auto"><path d="M 0 0 L 10 5 L 0 10 z" class="arrowMarkerPath" style="stroke-width: 1; stroke-dasharray: 1, 0;"/></marker><marker id="my-svg_flowchart-v2-pointStart" class="marker flowchart-v2" viewBox="0 0 10 10" refX="4.5" refY="5" markerUnits="userSpaceOnUse" markerWidth="8" markerHeight="8" orient="auto"><path d="M 0 5 L 10 10 L 10 0 z" class="arrowMarkerPath" style="stroke-width: 1; stroke-dasharray: 1, 0;"/></marker><marker id="my-svg_flowchart-v2-pointEnd-margin" class="marker flowchart-v2" viewBox="0 0 11.5 14" refX="11.5" refY="7" markerUnits="userSpaceOnUse" markerWidth="10.5" markerHeight="14" orient="auto"><path d="M 0 0 L 11.5 7 L 0 14 z" class="arrowMarkerPath" style="stroke-width: 0; stroke-dasharray: 1, 0;"/></marker><marker id="my-svg_flowchart-v2-pointStart-margin" class="marker flowchart-v2" viewBox="0 0 11.5 14" refX="1" refY="7" markerUnits="userSpaceOnUse" markerWidth="11.5" markerHeight="14" orient="auto"><polygon points="0,7 11.5,14 11.5,0" class="arrowMarkerPath" style="stroke-width: 0; stroke-dasharray: 1, 0;"/></marker><marker id="my-svg_flowchart-v2-circleEnd" class="marker flowchart-v2" viewBox="0 0 10 10" refX="11" refY="5" markerUnits="userSpaceOnUse" markerWidth="11" markerHeight="11" orient="auto"><circle cx="5" cy="5" r="5" class="arrowMarkerPath" style="stroke-width: 1; stroke-dasharray: 1, 0;"/></marker><marker id="my-svg_flowchart-v2-circleStart" class="marker flowchart-v2" viewBox="0 0 10 10" refX="-1" refY="5" markerUnits="userSpaceOnUse" markerWidth="11" markerHeight="11" orient="auto"><circle cx="5" cy="5" r="5" class="arrowMarkerPath" style="stroke-width: 1; stroke-dasharray: 1, 0;"/></marker><marker id="my-svg_flowchart-v2-circleEnd-margin" class="marker flowchart-v2" viewBox="0 0 10 10" refY="5" refX="12.25" markerUnits="userSpaceOnUse" markerWidth="14" markerHeight="14" orient="auto"><circle cx="5" cy="5" r="5" class="arrowMarkerPath" style="stroke-width: 0; stroke-dasharray: 1, 0;"/></marker><marker id="my-svg_flowchart-v2-circleStart-margin" class="marker flowchart-v2" viewBox="0 0 10 10" refX="-2" refY="5" markerUnits="userSpaceOnUse" markerWidth="14" markerHeight="14" orient="auto"><circle cx="5" cy="5" r="5" class="arrowMarkerPath" style="stroke-width: 0; stroke-dasharray: 1, 0;"/></marker><marker id="my-svg_flowchart-v2-crossEnd" class="marker cross flowchart-v2" viewBox="0 0 11 11" refX="12" refY="5.2" markerUnits="userSpaceOnUse" markerWidth="11" markerHeight="11" orient="auto"><path d="M 1,1 l 9,9 M 10,1 l -9,9" class="arrowMarkerPath" style="stroke-width: 2; stroke-dasharray: 1, 0;"/></marker><marker id="my-svg_flowchart-v2-crossStart" class="marker cross flowchart-v2" viewBox="0 0 11 11" refX="-1" refY="5.2" markerUnits="userSpaceOnUse" markerWidth="11" markerHeight="11" orient="auto"><path d="M 1,1 l 9,9 M 10,1 l -9,9" class="arrowMarkerPath" style="stroke-width: 2; stroke-dasharray: 1, 0;"/></marker><marker id="my-svg_flowchart-v2-crossEnd-margin" class="marker cross flowchart-v2" viewBox="0 0 15 15" refX="17.7" refY="7.5" markerUnits="userSpaceOnUse" markerWidth="12" markerHeight="12" orient="auto"><path d="M 1,1 L 14,14 M 1,14 L 14,1" class="arrowMarkerPath" style="stroke-width: 2.5;"/></marker><marker id="my-svg_flowchart-v2-crossStart-margin" class="marker cross flowchart-v2" viewBox="0 0 15 15" refX="-3.5" refY="7.5" markerUnits="userSpaceOnUse" markerWidth="12" markerHeight="12" orient="auto"><path d="M 1,1 L 14,14 M 1,14 L 14,1" class="arrowMarkerPath" style="stroke-width: 2.5; stroke-dasharray: 1, 0;"/></marker><g class="root"><g class="clusters"/><g class="edgePaths"><path d="M822.896,47.5L840.902,47.417C858.907,47.333,894.919,47.167,927.423,47.083C959.927,47,988.924,47,1003.423,47L1017.922,47" id="my-svg-L_User_App_0" class="edge-thickness-normal edge-pattern-solid edge-thickness-normal edge-pattern-solid flowchart-link" style=";" data-edge="true" data-et="edge" data-id="L_User_App_0" data-points="W3sieCI6ODIyLjg5NjIyOTgyNjg0NjksInkiOjQ3LjV9LHsieCI6OTMwLjkyOTY4NzUsInkiOjQ3fSx7IngiOjEwMjEuOTIxODc1LCJ5Ijo0N31d" data-look="classic" marker-end="url(#my-svg_flowchart-v2-pointEnd)"/><path d="M1171.615,86L1198.066,111.586C1224.517,137.172,1277.419,188.344,1326.61,213.93C1375.802,239.517,1421.284,239.517,1444.025,239.517L1466.766,239.517" id="my-svg-L_App_LS_0" class="edge-thickness-normal edge-pattern-solid edge-thickness-normal edge-pattern-solid flowchart-link" style=";" data-edge="true" data-et="edge" data-id="L_App_LS_0" data-points="W3sieCI6MTE3MS42MTUwMzI1NzU1NSwieSI6ODZ9LHsieCI6MTMzMC4zMjAzMTI1LCJ5IjoyMzkuNTE2NTg2MzAzNzEwOTR9LHsieCI6MTQ3MC43NjU2MjUsInkiOjIzOS41MTY1ODYzMDM3MTA5NH1d" data-look="classic" marker-end="url(#my-svg_flowchart-v2-pointEnd)"/><path d="M1240.672,47L1255.613,47C1270.555,47,1300.438,47,1329.667,49.919C1358.897,52.838,1387.473,58.676,1401.761,61.595L1416.05,64.514" id="my-svg-L_App_GH_0" class="edge-thickness-normal edge-pattern-solid edge-thickness-normal edge-pattern-solid flowchart-link" style=";" data-edge="true" data-et="edge" data-id="L_App_GH_0" data-points="W3sieCI6MTI0MC42NzE4NzUsInkiOjQ3fSx7IngiOjEzMzAuMzIwMzEyNSwieSI6NDd9LHsieCI6MTQxOS45Njg3NSwieSI6NjUuMzE0NjQ1MDA2NTA2MTh9XQ==" data-look="classic" marker-end="url(#my-svg_flowchart-v2-pointEnd)"/><path d="M206.766,117.455L222.387,122.359C238.008,127.264,269.25,137.074,313.094,141.979C356.938,146.883,413.383,146.883,469.132,146.883C524.88,146.883,579.932,146.883,632,146.883C684.068,146.883,733.151,146.883,782.475,146.883C831.799,146.883,881.365,146.883,939.542,146.883C997.719,146.883,1064.508,146.883,1131.073,146.883C1197.638,146.883,1263.979,146.883,1311.455,142.369C1358.932,137.854,1387.543,128.824,1401.849,124.309L1416.154,119.795" id="my-svg-L_Cron_GH_0" class="edge-thickness-normal edge-pattern-solid edge-thickness-normal edge-pattern-solid flowchart-link" style=";" data-edge="true" data-et="edge" data-id="L_Cron_GH_0" data-points="W3sieCI6MjA2Ljc2NTYyNSwieSI6MTE3LjQ1NDYzMzE0OTMxNDR9LHsieCI6MzAwLjQ5MjE4NzUsInkiOjE0Ni44ODMyOTMxNTE4NTU0N30seyJ4Ijo0NjkuODI4MTI1LCJ5IjoxNDYuODgzMjkzMTUxODU1NDd9LHsieCI6NjM0Ljk4NDM3NSwieSI6MTQ2Ljg4MzI5MzE1MTg1NTQ3fSx7IngiOjc4Mi4yMzQzNzUsInkiOjE0Ni44ODMyOTMxNTE4NTU0N30seyJ4Ijo5MzAuOTI5Njg3NSwieSI6MTQ2Ljg4MzI5MzE1MTg1NTQ3fSx7IngiOjExMzEuMjk2ODc1LCJ5IjoxNDYuODgzMjkzMTUxODU1NDd9LHsieCI6MTMzMC4zMjAzMTI1LCJ5IjoxNDYuODgzMjkzMTUxODU1NDd9LHsieCI6MTQxOS45Njg3NSwieSI6MTE4LjU5MDg3OTQwMjc2ODd9XQ==" data-look="classic" marker-end="url(#my-svg_flowchart-v2-pointEnd)"/><path d="M206.766,66.05L222.387,62.875C238.008,59.7,269.25,53.35,299.826,50.175C330.401,47,360.31,47,375.264,47L390.219,47" id="my-svg-L_Cron_Notif_0" class="edge-thickness-normal edge-pattern-solid edge-thickness-normal edge-pattern-solid flowchart-link" style=";" data-edge="true" data-et="edge" data-id="L_Cron_Notif_0" data-points="W3sieCI6MjA2Ljc2NTYyNSwieSI6NjYuMDUwMTc1OTg1MTEyMDZ9LHsieCI6MzAwLjQ5MjE4NzUsInkiOjQ3fSx7IngiOjM5NC4yMTg3NSwieSI6NDd9XQ==" data-look="classic" marker-end="url(#my-svg_flowchart-v2-pointEnd)"/><path d="M545.438,47L560.362,47C575.286,47,605.135,47,637.325,47.08C669.514,47.16,704.043,47.321,721.308,47.401L738.573,47.481" id="my-svg-L_Notif_User_0" class="edge-thickness-normal edge-pattern-solid edge-thickness-normal edge-pattern-solid flowchart-link" style=";" data-edge="true" data-et="edge" data-id="L_Notif_User_0" data-points="W3sieCI6NTQ1LjQzNzUsInkiOjQ3fSx7IngiOjYzNC45ODQzNzUsInkiOjQ3fSx7IngiOjc0Mi41NzI1MTczOTUwMTU5LCJ5Ijo0Ny41MDAwMDAwMDAwMDAwMX1d" data-look="classic" marker-end="url(#my-svg_flowchart-v2-pointEnd)"/></g><g class="edgeLabels"><g class="edgeLabel" transform="translate(930.9296875, 47)"><g class="label" data-id="L_User_App_0" transform="translate(-65.9921875, -24)"><foreignObject width="131.984375" height="48"><div xmlns="http://www.w3.org/1999/xhtml" class="labelBkg" style="display: table-cell; white-space: nowrap; line-height: 1.5; max-width: 200px; text-align: center;"><span class="edgeLabel"><p>opens, ticks tasks,<br />writes reflections</p></span></div></foreignObject></g></g><g class="edgeLabel" transform="translate(1330.3203125, 239.51658630371094)"><g class="label" data-id="L_App_LS_0" transform="translate(-47.65625, -12)"><foreignObject width="95.3125" height="24"><div xmlns="http://www.w3.org/1999/xhtml" class="labelBkg" style="display: table-cell; white-space: nowrap; line-height: 1.5; max-width: 200px; text-align: center;"><span class="edgeLabel"><p>persists state</p></span></div></foreignObject></g></g><g class="edgeLabel" transform="translate(1330.3203125, 47)"><g class="label" data-id="L_App_GH_0" transform="translate(-64.6484375, -24)"><foreignObject width="129.296875" height="48"><div xmlns="http://www.w3.org/1999/xhtml" class="labelBkg" style="display: table-cell; white-space: nowrap; line-height: 1.5; max-width: 200px; text-align: center;"><span class="edgeLabel"><p>syncs state.json<br />via REST API + PAT</p></span></div></foreignObject></g></g><g class="edgeLabel" transform="translate(782.234375, 146.88329315185547)"><g class="label" data-id="L_Cron_GH_0" transform="translate(-57.703125, -24)"><foreignObject width="115.40625" height="48"><div xmlns="http://www.w3.org/1999/xhtml" class="labelBkg" style="display: table-cell; white-space: nowrap; line-height: 1.5; max-width: 200px; text-align: center;"><span class="edgeLabel"><p>clones repo,<br />reads state.json</p></span></div></foreignObject></g></g><g class="edgeLabel" transform="translate(300.4921875, 47)"><g class="label" data-id="L_Cron_Notif_0" transform="translate(-68.7265625, -24)"><foreignObject width="137.453125" height="48"><div xmlns="http://www.w3.org/1999/xhtml" class="labelBkg" style="display: table-cell; white-space: nowrap; line-height: 1.5; max-width: 200px; text-align: center;"><span class="edgeLabel"><p>08:00 + 16:00 SAST<br />personalised nudge</p></span></div></foreignObject></g></g><g class="edgeLabel" transform="translate(634.984375, 47)"><g class="label" data-id="L_Notif_User_0" transform="translate(-64.546875, -12)"><foreignObject width="129.09375" height="24"><div xmlns="http://www.w3.org/1999/xhtml" class="labelBkg" style="display: table-cell; white-space: nowrap; line-height: 1.5; max-width: 200px; text-align: center;"><span class="edgeLabel"><p>surfaces reminder</p></span></div></foreignObject></g></g></g><g class="nodes"><g class="node default person" id="my-svg-flowchart-User-0" data-look="classic" transform="translate(782.234375, 47)"><g class="basic label-container outer-path"><path d="M-20.671875 -19.5 C-5.382613675257698 -19.5, 9.906647649484604 -19.5, 20.671875 -19.5 C20.671875 -19.5, 20.671875 -19.5, 20.671875 -19.5 C21.122336821918804 -19.48555456614181, 21.572798643837604 -19.47110913228362, 21.9212442896239 -19.45993515863156 C22.364157880258137 -19.4172078172246, 22.807071470892375 -19.37448047581764, 23.165479652847864 -19.3399052695533 C23.463907264225703 -19.29165780768642, 23.762334875603543 -19.243410345819544, 24.39946825967676 -19.140403561325776 C24.700249297919687 -19.071752252126533, 25.001030336162614 -19.00310094292729, 25.61813938623539 -18.862249829261074 C25.893708019832157 -18.78046250529883, 26.169276653428927 -18.698675181336583, 26.816485251460602 -18.50658706670804 C27.12738036059248 -18.392174792664623, 27.43827546972436 -18.277762518621206, 27.989581595147794 -18.074876768247425 C28.41096817805915 -17.888341427981423, 28.832354760970503 -17.701806087715426, 29.13260791279238 -17.568892924097174 C29.401930988590433 -17.428387247962995, 29.67125406438848 -17.287881571828816, 30.240867264076783 -16.990714730406097 C30.466736605098614 -16.85379140852308, 30.692605946120445 -16.716868086640066, 31.309805573605697 -16.342718045390892 C31.692910221117913 -16.07548082761927, 32.076014868630125 -15.808243609847649, 32.33503034457871 -15.627565626425154 C32.64497228256752 -15.38039517878044, 32.954914220556326 -15.133224731135723, 33.312328708501866 -14.848196188198123 C33.66803848480735 -14.525149980922434, 34.02374826111282 -14.202103773646744, 34.23768473676799 -14.007812326905688 C34.52030351521447 -13.715985234726453, 34.80292229366096 -13.424158142547219, 35.10729594296865 -13.10986736009568 C35.335499454111506 -12.841806530759643, 35.563702965254365 -12.573745701423602, 35.91758890812658 -12.158051136245305 C36.1630099533492 -11.829209293964162, 36.40843099857183 -11.500367451683019, 36.665233964640635 -11.156274872382312 C36.82784211355512 -10.906465089247801, 36.990450262469615 -10.65665530611329, 37.34715887860425 -10.108655082055241 C37.4766849767039 -9.878668378939633, 37.606211074803554 -9.648681675824022, 37.960561474273504 -9.019496659696287 C38.13380974664288 -8.659742915202079, 38.30705801901226 -8.299989170707871, 38.50292114880834 -7.893275190886684 C38.64745649854609 -7.53627008263356, 38.791991848283836 -7.179264974380436, 38.972009229970325 -6.734618561215508 C39.081580829427615 -6.404606361513691, 39.19115242888491 -6.0745941618118735, 39.36589813421488 -5.548287939305138 C39.485529519494044 -5.092081618665331, 39.60516090477321 -4.635875298025525, 39.68296928754556 -4.339158212148133 C39.734445207914085 -4.07484024049538, 39.78592112828261 -3.810522268842628, 39.921919776581774 -3.1121979531509023 C39.961351314611406 -2.806374730830981, 40.000782852641045 -2.5005515085110597, 40.08176770250937 -1.872449005199798 C40.10858273657588 -1.4547832049078782, 40.1353977706424 -1.0371174046159586, 40.16185621591342 -0.6250057626472757 C40.16185621591342 -0.15913943893946764, 40.16185621591342 0.3067268847683404, 40.16185621591342 0.625005762647271 C40.133215484477944 1.07110827313702, 40.10457475304248 1.5172107836267692, 40.08176770250937 1.8724490051997846 C40.041376992582904 2.1857113753415858, 40.00098628265644 2.4989737454833865, 39.921919776581774 3.1121979531508885 C39.85197012346239 3.471374638054518, 39.78202047034301 3.8305513229581476, 39.68296928754556 4.339158212148129 C39.5770254895307 4.743167830311328, 39.47108169151583 5.147177448474526, 39.36589813421489 5.548287939305125 C39.275863742848806 5.8194571810675795, 39.18582935148273 6.0906264228300335, 38.972009229970325 6.734618561215495 C38.86636810068995 6.995554192970314, 38.760726971409575 7.256489824725134, 38.50292114880834 7.893275190886679 C38.355122662379515 8.200181910337138, 38.207324175950696 8.507088629787596, 37.960561474273504 9.019496659696284 C37.79213138402588 9.318561340327006, 37.62370129377825 9.617626020957731, 37.34715887860425 10.108655082055236 C37.207995482229315 10.322447429491438, 37.06883208585438 10.536239776927639, 36.66523396464064 11.156274872382301 C36.43827346052322 11.460381271372363, 36.211312956405806 11.764487670362422, 35.91758890812658 12.158051136245302 C35.681088361627516 12.435858135425429, 35.44458781512845 12.713665134605554, 35.10729594296866 13.10986736009567 C34.93033661051991 13.292592399480396, 34.753377278071156 13.47531743886512, 34.23768473676799 14.007812326905684 C33.87960517687992 14.333010708930049, 33.52152561699185 14.658209090954411, 33.31232870850189 14.848196188198111 C32.96145905652334 15.128005398617432, 32.61058940454479 15.407814609036754, 32.33503034457871 15.627565626425152 C31.98908228097294 15.868884019746233, 31.643134217367173 16.110202413067313, 31.309805573605708 16.34271804539089 C30.971840259396313 16.547594604969266, 30.633874945186918 16.75247116454764, 30.240867264076787 16.990714730406093 C29.962069002379152 17.13616360495494, 29.683270740681515 17.28161247950379, 29.132607912792388 17.56889292409717 C28.696404605221087 17.761987188847606, 28.26020129764979 17.955081453598044, 27.989581595147804 18.07487676824742 C27.675520797443358 18.190454044948844, 27.361459999738916 18.30603132165027, 26.816485251460616 18.506587066708033 C26.384556172485254 18.63478135010592, 25.95262709350989 18.76297563350381, 25.618139386235413 18.86224982926107 C25.2337119336546 18.94999288668907, 24.849284481073788 19.037735944117067, 24.399468259676766 19.140403561325773 C24.04738104703288 19.197326291388922, 23.69529383438899 19.254249021452072, 23.16547965284788 19.3399052695533 C22.679960093771946 19.386742757494652, 22.194440534696017 19.43358024543601, 21.9212442896239 19.45993515863156 C21.635715216405504 19.469091520261046, 21.350186143187106 19.478247881890535, 20.671875000000004 19.5 C20.671875000000004 19.5, 20.671875 19.5, 20.671875 19.5 C9.824744853884908 19.5, -1.022385292230183 19.5, -20.671874999999996 19.5 C-20.969289745189748 19.490462488004447, -21.266704490379503 19.480924976008897, -21.921244289623893 19.45993515863156 C-22.200940250511863 19.432953225668303, -22.480636211399837 19.40597129270505, -23.16547965284787 19.3399052695533 C-23.500786309029348 19.28569548972383, -23.836092965210828 19.231485709894365, -24.39946825967676 19.140403561325773 C-24.762651066091514 19.057509455750903, -25.12583387250627 18.974615350176034, -25.618139386235388 18.862249829261074 C-25.9644219740994 18.759474974857433, -26.310704561963412 18.656700120453788, -26.81648525146059 18.506587066708043 C-27.178134538678126 18.373496785962626, -27.53978382589566 18.24040650521721, -27.989581595147797 18.074876768247425 C-28.402355853795264 17.892153848457525, -28.81513011244273 17.709430928667626, -29.13260791279238 17.568892924097174 C-29.564217614006374 17.34372241943304, -29.99582731522037 17.118551914768908, -30.24086726407678 16.990714730406097 C-30.617380627318603 16.762470116970782, -30.993893990560423 16.534225503535467, -31.309805573605686 16.3427180453909 C-31.590185217605907 16.147137343175515, -31.87056486160613 15.951556640960128, -32.33503034457871 15.627565626425156 C-32.57349967415977 15.437392682019635, -32.81196900374083 15.247219737614113, -33.312328708501866 14.848196188198125 C-33.572878693069136 14.611571585988958, -33.8334286776364 14.374946983779791, -34.237684736767974 14.007812326905697 C-34.45925386916311 13.779024006543642, -34.680823001558245 13.550235686181585, -35.107295942968655 13.109867360095677 C-35.425021559504124 12.736648771813371, -35.74274717603959 12.363430183531065, -35.917588908126575 12.158051136245307 C-36.14785219902249 11.849519303862131, -36.37811548991841 11.540987471478955, -36.665233964640635 11.156274872382316 C-36.84976374866953 10.872787570928825, -37.03429353269842 10.589300269475334, -37.34715887860425 10.108655082055249 C-37.54575380021103 9.756029688825953, -37.74434872181781 9.403404295596658, -37.960561474273504 9.019496659696289 C-38.088170857200055 8.754513045645918, -38.2157802401266 8.489529431595546, -38.50292114880834 7.893275190886686 C-38.6037193791328 7.644301613184072, -38.704517609457255 7.395328035481458, -38.972009229970325 6.73461856121551 C-39.073642752754516 6.4285145836923245, -39.1752762755387 6.122410606169138, -39.36589813421488 5.5482879393051325 C-39.48006856371449 5.112906609845969, -39.594238993214105 4.677525280386806, -39.68296928754556 4.339158212148136 C-39.74160602908277 4.038070937234276, -39.80024277061998 3.7369836623204162, -39.921919776581774 3.112197953150904 C-39.981579687576506 2.6494874646577213, -40.041239598571245 2.1867769761645386, -40.08176770250937 1.872449005199809 C-40.113221278248126 1.3825341741992874, -40.144674853986885 0.8926193431987656, -40.16185621591342 0.6250057626472781 C-40.16185621591342 0.3481470344781502, -40.16185621591342 0.07128830630902228, -40.16185621591342 -0.6250057626472687 C-40.13978139503136 -0.9688389163599012, -40.11770657414932 -1.3126720700725336, -40.08176770250937 -1.8724490051997822 C-40.02397592668521 -2.3206706062149745, -39.966184150861054 -2.7688922072301665, -39.921919776581774 -3.112197953150895 C-39.845051431648855 -3.5069006582509696, -39.76818308671594 -3.9016033633510445, -39.68296928754556 -4.339158212148126 C-39.592986240692454 -4.682302568698225, -39.50300319383935 -5.025446925248325, -39.36589813421489 -5.548287939305123 C-39.26013710262486 -5.866823315722286, -39.154376071034825 -6.185358692139448, -38.97200922997033 -6.734618561215485 C-38.85602899869979 -7.021091974778941, -38.74004876742926 -7.307565388342398, -38.50292114880834 -7.893275190886676 C-38.36927042480552 -8.17080377894592, -38.2356197008027 -8.448332367005165, -37.960561474273504 -9.019496659696282 C-37.83516338687343 -9.242153661808375, -37.70976529947336 -9.464810663920469, -37.34715887860425 -10.108655082055243 C-37.21023909922596 -10.319000631289075, -37.07331931984768 -10.529346180522907, -36.66523396464064 -11.156274872382308 C-36.50910095302378 -11.365478883938923, -36.35296794140693 -11.574682895495538, -35.91758890812659 -12.158051136245302 C-35.64542492811902 -12.477750433731373, -35.373260948111444 -12.797449731217444, -35.10729594296866 -13.10986736009567 C-34.861375102806974 -13.36380081803908, -34.61545426264529 -13.617734275982489, -34.237684736767996 -14.007812326905677 C-33.877590915645776 -14.334840007688463, -33.51749709452356 -14.661867688471249, -33.31232870850189 -14.848196188198107 C-32.969334660450166 -15.12172481406441, -32.626340612398444 -15.395253439930709, -32.33503034457872 -15.627565626425149 C-32.11881192404254 -15.778390236646619, -31.902593503506363 -15.929214846868087, -31.30980557360571 -16.342718045390885 C-30.941954785109214 -16.565711355108643, -30.57410399661272 -16.7887046648264, -30.24086726407679 -16.99071473040609 C-29.923878987494454 -17.156087311258414, -29.60689071091212 -17.321459892110738, -29.132607912792388 -17.56889292409717 C-28.7874949918746 -17.72166417677641, -28.442382070956814 -17.87443542945565, -27.989581595147804 -18.07487676824742 C-27.625508541903738 -18.208859017295648, -27.26143548865967 -18.342841266343875, -26.81648525146062 -18.506587066708033 C-26.451078182259963 -18.61503796678594, -26.085671113059306 -18.72348886686385, -25.618139386235413 -18.862249829261067 C-25.167927612680007 -18.965007728668706, -24.717715839124597 -19.067765628076344, -24.399468259676766 -19.140403561325773 C-24.061181095893208 -19.195095206510164, -23.722893932109653 -19.24978685169455, -23.165479652847882 -19.3399052695533 C-22.883999946314862 -19.367059278313665, -22.602520239781843 -19.394213287074027, -21.921244289623903 -19.45993515863156 C-21.4520149383298 -19.474982430628035, -20.982785587035696 -19.49002970262451, -20.671875000000007 -19.5 C-20.671875000000004 -19.5, -20.671875000000004 -19.5, -20.671875 -19.5" stroke="none" stroke-width="0" fill="#F59E0B" style="fill:#F59E0B !important;stroke:#0D1117 !important"/><path d="M-20.671875 -19.5 C-5.059026255891096 -19.5, 10.553822488217808 -19.5, 20.671875 -19.5 M-20.671875 -19.5 C-4.190794794205413 -19.5, 12.290285411589174 -19.5, 20.671875 -19.5 M20.671875 -19.5 C20.671875 -19.5, 20.671875 -19.5, 20.671875 -19.5 M20.671875 -19.5 C20.671875 -19.5, 20.671875 -19.5, 20.671875 -19.5 M20.671875 -19.5 C20.981613236394487 -19.490067297627732, 21.29135147278898 -19.480134595255464, 21.9212442896239 -19.45993515863156 M20.671875 -19.5 C20.974616448196073 -19.490291671006833, 21.277357896392143 -19.480583342013666, 21.9212442896239 -19.45993515863156 M21.9212442896239 -19.45993515863156 C22.35206689534498 -19.418374219997634, 22.78288950106606 -19.376813281363713, 23.165479652847864 -19.3399052695533 M21.9212442896239 -19.45993515863156 C22.24461624036832 -19.428739855454914, 22.567988191112736 -19.397544552278273, 23.165479652847864 -19.3399052695533 M23.165479652847864 -19.3399052695533 C23.412558156968906 -19.299959533129424, 23.659636661089948 -19.260013796705554, 24.39946825967676 -19.140403561325776 M23.165479652847864 -19.3399052695533 C23.558299460892822 -19.2763972093517, 23.951119268937777 -19.2128891491501, 24.39946825967676 -19.140403561325776 M24.39946825967676 -19.140403561325776 C24.649276353018156 -19.083386494170757, 24.89908444635955 -19.026369427015737, 25.61813938623539 -18.862249829261074 M24.39946825967676 -19.140403561325776 C24.69546759687081 -19.072843644187426, 24.991466934064857 -19.005283727049072, 25.61813938623539 -18.862249829261074 M25.61813938623539 -18.862249829261074 C25.924009348682958 -18.77146922995083, 26.22987931113052 -18.680688630640592, 26.816485251460602 -18.50658706670804 M25.61813938623539 -18.862249829261074 C25.982029912266082 -18.754249031235513, 26.345920438296776 -18.646248233209953, 26.816485251460602 -18.50658706670804 M26.816485251460602 -18.50658706670804 C27.07064307815419 -18.413054637075604, 27.324800904847777 -18.319522207443168, 27.989581595147794 -18.074876768247425 M26.816485251460602 -18.50658706670804 C27.16212123623925 -18.379389829285476, 27.5077572210179 -18.252192591862915, 27.989581595147794 -18.074876768247425 M27.989581595147794 -18.074876768247425 C28.278743367871936 -17.946873429141668, 28.56790514059608 -17.818870090035915, 29.13260791279238 -17.568892924097174 M27.989581595147794 -18.074876768247425 C28.290559883816773 -17.941642608057382, 28.59153817248575 -17.80840844786734, 29.13260791279238 -17.568892924097174 M29.13260791279238 -17.568892924097174 C29.354642986025812 -17.453057368611546, 29.576678059259248 -17.337221813125915, 30.240867264076783 -16.990714730406097 M29.13260791279238 -17.568892924097174 C29.358895032212896 -17.45083907883931, 29.585182151633415 -17.332785233581443, 30.240867264076783 -16.990714730406097 M30.240867264076783 -16.990714730406097 C30.654151488400416 -16.74017940489342, 31.067435712724052 -16.489644079380746, 31.309805573605697 -16.342718045390892 M30.240867264076783 -16.990714730406097 C30.609868268505675 -16.7670241530307, 30.97886927293457 -16.543333575655303, 31.309805573605697 -16.342718045390892 M31.309805573605697 -16.342718045390892 C31.521573239137968 -16.194998089190072, 31.73334090467024 -16.04727813298925, 32.33503034457871 -15.627565626425154 M31.309805573605697 -16.342718045390892 C31.571268629322912 -16.160332736275823, 31.83273168504013 -15.977947427160752, 32.33503034457871 -15.627565626425154 M32.33503034457871 -15.627565626425154 C32.69944746651631 -15.336952669226806, 33.0638645884539 -15.046339712028455, 33.312328708501866 -14.848196188198123 M32.33503034457871 -15.627565626425154 C32.548521526013126 -15.457312090470142, 32.76201270744754 -15.287058554515129, 33.312328708501866 -14.848196188198123 M33.312328708501866 -14.848196188198123 C33.51603083541359 -14.663199306199832, 33.71973296232531 -14.478202424201541, 34.23768473676799 -14.007812326905688 M33.312328708501866 -14.848196188198123 C33.578819619380155 -14.606176193901586, 33.845310530258445 -14.364156199605048, 34.23768473676799 -14.007812326905688 M34.23768473676799 -14.007812326905688 C34.493296138851136 -13.743872568168438, 34.74890754093428 -13.479932809431187, 35.10729594296865 -13.10986736009568 M34.23768473676799 -14.007812326905688 C34.426465889773226 -13.812880287206868, 34.61524704277847 -13.61794824750805, 35.10729594296865 -13.10986736009568 M35.10729594296865 -13.10986736009568 C35.334001737283884 -12.843565834167869, 35.56070753159912 -12.577264308240059, 35.91758890812658 -12.158051136245305 M35.10729594296865 -13.10986736009568 C35.32950351900721 -12.84884969731152, 35.551711095045775 -12.58783203452736, 35.91758890812658 -12.158051136245305 M35.91758890812658 -12.158051136245305 C36.11668663685187 -11.891278317929647, 36.31578436557715 -11.624505499613988, 36.665233964640635 -11.156274872382312 M35.91758890812658 -12.158051136245305 C36.163541895397245 -11.828496540080705, 36.40949488266791 -11.498941943916105, 36.665233964640635 -11.156274872382312 M36.665233964640635 -11.156274872382312 C36.80644973530896 -10.939329526891797, 36.947665505977284 -10.72238418140128, 37.34715887860425 -10.108655082055241 M36.665233964640635 -11.156274872382312 C36.89368796452945 -10.805308180064525, 37.12214196441826 -10.45434148774674, 37.34715887860425 -10.108655082055241 M37.34715887860425 -10.108655082055241 C37.56651926216548 -9.719158508394784, 37.78587964572671 -9.329661934734327, 37.960561474273504 -9.019496659696287 M37.34715887860425 -10.108655082055241 C37.471040328152824 -9.88869102402472, 37.594921777701394 -9.668726965994198, 37.960561474273504 -9.019496659696287 M37.960561474273504 -9.019496659696287 C38.14618316765007 -8.63404924173185, 38.33180486102664 -8.248601823767412, 38.50292114880834 -7.893275190886684 M37.960561474273504 -9.019496659696287 C38.11688380950709 -8.694889985821602, 38.27320614474066 -8.370283311946915, 38.50292114880834 -7.893275190886684 M38.50292114880834 -7.893275190886684 C38.68766769264032 -7.436947655790264, 38.872414236472295 -6.9806201206938425, 38.972009229970325 -6.734618561215508 M38.50292114880834 -7.893275190886684 C38.65651830456791 -7.513887246561566, 38.810115460327474 -7.134499302236449, 38.972009229970325 -6.734618561215508 M38.972009229970325 -6.734618561215508 C39.0790001345623 -6.412379003270147, 39.18599103915427 -6.0901394453247875, 39.36589813421488 -5.548287939305138 M38.972009229970325 -6.734618561215508 C39.08693303004653 -6.388486386006892, 39.201856830122736 -6.042354210798274, 39.36589813421488 -5.548287939305138 M39.36589813421488 -5.548287939305138 C39.43986544731864 -5.266218516804212, 39.5138327604224 -4.9841490943032865, 39.68296928754556 -4.339158212148133 M39.36589813421488 -5.548287939305138 C39.46745930846503 -5.160991164997948, 39.56902048271519 -4.773694390690758, 39.68296928754556 -4.339158212148133 M39.68296928754556 -4.339158212148133 C39.77279763194866 -3.8779086488654926, 39.86262597635177 -3.416659085582852, 39.921919776581774 -3.1121979531509023 M39.68296928754556 -4.339158212148133 C39.76110990163095 -3.937922673844278, 39.839250515716344 -3.536687135540423, 39.921919776581774 -3.1121979531509023 M39.921919776581774 -3.1121979531509023 C39.9576048238101 -2.8354317736576498, 39.99328987103842 -2.558665594164397, 40.08176770250937 -1.872449005199798 M39.921919776581774 -3.1121979531509023 C39.98196417583843 -2.6465054496240783, 40.04200857509508 -2.180812946097254, 40.08176770250937 -1.872449005199798 M40.08176770250937 -1.872449005199798 C40.10785916074556 -1.4660534825250142, 40.133950618981764 -1.0596579598502305, 40.16185621591342 -0.6250057626472757 M40.08176770250937 -1.872449005199798 C40.10448194600461 -1.5186563281540648, 40.12719618949985 -1.1648636511083317, 40.16185621591342 -0.6250057626472757 M40.16185621591342 -0.6250057626472757 C40.16185621591342 -0.13233101582866058, 40.16185621591342 0.36034373098995454, 40.16185621591342 0.625005762647271 M40.16185621591342 -0.6250057626472757 C40.16185621591342 -0.35315775498064444, 40.16185621591342 -0.08130974731401319, 40.16185621591342 0.625005762647271 M40.16185621591342 0.625005762647271 C40.14568784789288 0.8768411454389173, 40.12951947987234 1.1286765282305637, 40.08176770250937 1.8724490051997846 M40.16185621591342 0.625005762647271 C40.12986095941179 1.1233577087662492, 40.09786570291017 1.6217096548852274, 40.08176770250937 1.8724490051997846 M40.08176770250937 1.8724490051997846 C40.031133257959645 2.265159758225412, 39.980498813409916 2.657870511251039, 39.921919776581774 3.1121979531508885 M40.08176770250937 1.8724490051997846 C40.035483036586484 2.231423734156599, 39.989198370663594 2.5903984631134134, 39.921919776581774 3.1121979531508885 M39.921919776581774 3.1121979531508885 C39.844168091533064 3.5114364230515798, 39.76641640648435 3.9106748929522706, 39.68296928754556 4.339158212148129 M39.921919776581774 3.1121979531508885 C39.84271722359102 3.5188863232929033, 39.76351467060027 3.925574693434918, 39.68296928754556 4.339158212148129 M39.68296928754556 4.339158212148129 C39.59684359263791 4.667592813943283, 39.51071789773027 4.996027415738438, 39.36589813421489 5.548287939305125 M39.68296928754556 4.339158212148129 C39.618394780358805 4.585408794819683, 39.55382027317205 4.831659377491237, 39.36589813421489 5.548287939305125 M39.36589813421489 5.548287939305125 C39.274164572499906 5.824574811432448, 39.182431010784924 6.10086168355977, 38.972009229970325 6.734618561215495 M39.36589813421489 5.548287939305125 C39.27574412119669 5.819817462424645, 39.18559010817849 6.091346985544163, 38.972009229970325 6.734618561215495 M38.972009229970325 6.734618561215495 C38.841753279336565 7.056353277608373, 38.7114973287028 7.378087994001253, 38.50292114880834 7.893275190886679 M38.972009229970325 6.734618561215495 C38.84754350576166 7.042051306391987, 38.72307778155298 7.34948405156848, 38.50292114880834 7.893275190886679 M38.50292114880834 7.893275190886679 C38.349506498318405 8.211843995176691, 38.19609184782848 8.530412799466704, 37.960561474273504 9.019496659696284 M38.50292114880834 7.893275190886679 C38.31880468877667 8.27559695960359, 38.13468822874501 8.657918728320501, 37.960561474273504 9.019496659696284 M37.960561474273504 9.019496659696284 C37.718534460826554 9.449240129963995, 37.4765074473796 9.878983600231704, 37.34715887860425 10.108655082055236 M37.960561474273504 9.019496659696284 C37.82827059207448 9.254392516945074, 37.69597970987546 9.489288374193864, 37.34715887860425 10.108655082055236 M37.34715887860425 10.108655082055236 C37.1884290782709 10.352506680286703, 37.029699277937546 10.59635827851817, 36.66523396464064 11.156274872382301 M37.34715887860425 10.108655082055236 C37.08264573053223 10.515018309219492, 36.818132582460215 10.921381536383748, 36.66523396464064 11.156274872382301 M36.66523396464064 11.156274872382301 C36.366932850771356 11.555971189176613, 36.06863173690207 11.955667505970927, 35.91758890812658 12.158051136245302 M36.66523396464064 11.156274872382301 C36.40465071118765 11.50543269238655, 36.14406745773466 11.854590512390802, 35.91758890812658 12.158051136245302 M35.91758890812658 12.158051136245302 C35.67768203456648 12.43985940101682, 35.437775161006385 12.721667665788337, 35.10729594296866 13.10986736009567 M35.91758890812658 12.158051136245302 C35.63816997479512 12.486272514724153, 35.35875104146366 12.814493893203004, 35.10729594296866 13.10986736009567 M35.10729594296866 13.10986736009567 C34.86617881732767 13.358840588404165, 34.62506169168668 13.60781381671266, 34.23768473676799 14.007812326905684 M35.10729594296866 13.10986736009567 C34.839986115287005 13.385886703721985, 34.57267628760535 13.661906047348298, 34.23768473676799 14.007812326905684 M34.23768473676799 14.007812326905684 C34.04885384257668 14.179303548818554, 33.86002294838537 14.350794770731424, 33.31232870850189 14.848196188198111 M34.23768473676799 14.007812326905684 C34.01603493394145 14.209108813300336, 33.7943851311149 14.410405299694986, 33.31232870850189 14.848196188198111 M33.31232870850189 14.848196188198111 C32.94543715068118 15.140782442165735, 32.57854559286047 15.433368696133359, 32.33503034457871 15.627565626425152 M33.31232870850189 14.848196188198111 C32.952331508315304 15.135284375419083, 32.59233430812872 15.422372562640055, 32.33503034457871 15.627565626425152 M32.33503034457871 15.627565626425152 C32.080892574468635 15.804841133407189, 31.82675480435855 15.982116640389227, 31.309805573605708 16.34271804539089 M32.33503034457871 15.627565626425152 C31.938466718204126 15.904191245221362, 31.541903091829536 16.180816864017572, 31.309805573605708 16.34271804539089 M31.309805573605708 16.34271804539089 C30.892727743828075 16.595553076823478, 30.475649914050443 16.848388108256064, 30.240867264076787 16.990714730406093 M31.309805573605708 16.34271804539089 C31.048000603960823 16.501425756526395, 30.786195634315938 16.6601334676619, 30.240867264076787 16.990714730406093 M30.240867264076787 16.990714730406093 C29.881855138831092 17.17801112618853, 29.522843013585398 17.36530752197097, 29.132607912792388 17.56889292409717 M30.240867264076787 16.990714730406093 C29.95263934275604 17.14108305234033, 29.66441142143529 17.291451374274573, 29.132607912792388 17.56889292409717 M29.132607912792388 17.56889292409717 C28.731355321341876 17.74651554359709, 28.330102729891365 17.924138163097012, 27.989581595147804 18.07487676824742 M29.132607912792388 17.56889292409717 C28.806771790151288 17.713130910005226, 28.480935667510188 17.857368895913282, 27.989581595147804 18.07487676824742 M27.989581595147804 18.07487676824742 C27.611664364842618 18.21395380242831, 27.233747134537435 18.3530308366092, 26.816485251460616 18.506587066708033 M27.989581595147804 18.07487676824742 C27.684889529626417 18.18700626490187, 27.380197464105027 18.299135761556318, 26.816485251460616 18.506587066708033 M26.816485251460616 18.506587066708033 C26.56930983374302 18.579947433236374, 26.322134416025424 18.65330779976471, 25.618139386235413 18.86224982926107 M26.816485251460616 18.506587066708033 C26.421513299286225 18.62381266886331, 26.02654134711183 18.741038271018585, 25.618139386235413 18.86224982926107 M25.618139386235413 18.86224982926107 C25.301059444423682 18.934621256839606, 24.98397950261195 19.00699268441814, 24.399468259676766 19.140403561325773 M25.618139386235413 18.86224982926107 C25.320492384745435 18.930185815022952, 25.022845383255454 18.998121800784837, 24.399468259676766 19.140403561325773 M24.399468259676766 19.140403561325773 C24.002988916575152 19.204503266775216, 23.60650957347354 19.268602972224656, 23.16547965284788 19.3399052695533 M24.399468259676766 19.140403561325773 C24.12108936951743 19.1854097014262, 23.842710479358093 19.230415841526625, 23.16547965284788 19.3399052695533 M23.16547965284788 19.3399052695533 C22.774178770511572 19.377653595064118, 22.382877888175265 19.41540192057494, 21.9212442896239 19.45993515863156 M23.16547965284788 19.3399052695533 C22.83689376062472 19.371603555393715, 22.508307868401563 19.40330184123413, 21.9212442896239 19.45993515863156 M21.9212442896239 19.45993515863156 C21.5470493072474 19.471934863390025, 21.172854324870897 19.48393456814849, 20.671875000000004 19.5 M21.9212442896239 19.45993515863156 C21.46153070548128 19.474677278496806, 21.00181712133866 19.48941939836205, 20.671875000000004 19.5 M20.671875000000004 19.5 C20.671875000000004 19.5, 20.671875000000004 19.5, 20.671875 19.5 M20.671875000000004 19.5 C20.671875000000004 19.5, 20.671875 19.5, 20.671875 19.5 M20.671875 19.5 C8.898869586078641 19.5, -2.874135827842718 19.5, -20.671874999999996 19.5 M20.671875 19.5 C10.725092944604127 19.5, 0.7783108892082531 19.5, -20.671874999999996 19.5 M-20.671874999999996 19.5 C-21.122959585619245 19.485534595322072, -21.574044171238494 19.471069190644144, -21.921244289623893 19.45993515863156 M-20.671874999999996 19.5 C-20.96608813502223 19.490565157410963, -21.26030127004446 19.48113031482193, -21.921244289623893 19.45993515863156 M-21.921244289623893 19.45993515863156 C-22.17563566953055 19.43539432816236, -22.430027049437204 19.41085349769316, -23.16547965284787 19.3399052695533 M-21.921244289623893 19.45993515863156 C-22.205855444919592 19.432479062775176, -22.49046660021529 19.405022966918793, -23.16547965284787 19.3399052695533 M-23.16547965284787 19.3399052695533 C-23.551420505913413 19.277509345445676, -23.937361358978958 19.215113421338057, -24.39946825967676 19.140403561325773 M-23.16547965284787 19.3399052695533 C-23.6410696442423 19.263015568000114, -24.11665963563673 19.18612586644693, -24.39946825967676 19.140403561325773 M-24.39946825967676 19.140403561325773 C-24.86156573323636 19.03493282845362, -25.323663206795963 18.929462095581464, -25.618139386235388 18.862249829261074 M-24.39946825967676 19.140403561325773 C-24.81560371710403 19.045423358705637, -25.231739174531295 18.950443156085505, -25.618139386235388 18.862249829261074 M-25.618139386235388 18.862249829261074 C-25.998702268166454 18.749300763519265, -26.379265150097517 18.636351697777457, -26.81648525146059 18.506587066708043 M-25.618139386235388 18.862249829261074 C-26.051836089447104 18.73353092426829, -26.485532792658816 18.604812019275503, -26.81648525146059 18.506587066708043 M-26.81648525146059 18.506587066708043 C-27.093208512230955 18.40475034874277, -27.369931773001316 18.302913630777493, -27.989581595147797 18.074876768247425 M-26.81648525146059 18.506587066708043 C-27.187753900932346 18.369956771732664, -27.559022550404098 18.233326476757284, -27.989581595147797 18.074876768247425 M-27.989581595147797 18.074876768247425 C-28.440298668585616 17.875357689883447, -28.891015742023438 17.675838611519467, -29.13260791279238 17.568892924097174 M-27.989581595147797 18.074876768247425 C-28.34091210450255 17.919353173605348, -28.6922426138573 17.763829578963268, -29.13260791279238 17.568892924097174 M-29.13260791279238 17.568892924097174 C-29.45743059040333 17.399433141246398, -29.782253268014276 17.22997335839562, -30.24086726407678 16.990714730406097 M-29.13260791279238 17.568892924097174 C-29.549146843100612 17.351584830961286, -29.965685773408843 17.134276737825402, -30.24086726407678 16.990714730406097 M-30.24086726407678 16.990714730406097 C-30.48306980086098 16.84389012926742, -30.72527233764518 16.697065528128743, -31.309805573605686 16.3427180453909 M-30.24086726407678 16.990714730406097 C-30.534111625095704 16.812948275461277, -30.827355986114625 16.635181820516458, -31.309805573605686 16.3427180453909 M-31.309805573605686 16.3427180453909 C-31.614608185386043 16.130100938105326, -31.9194107971664 15.917483830819753, -32.33503034457871 15.627565626425156 M-31.309805573605686 16.3427180453909 C-31.716217185759746 16.059222898027365, -32.122628797913805 15.775727750663833, -32.33503034457871 15.627565626425156 M-32.33503034457871 15.627565626425156 C-32.6822876013534 15.350637205051033, -33.0295448581281 15.073708783676912, -33.312328708501866 14.848196188198125 M-32.33503034457871 15.627565626425156 C-32.721310164822754 15.319517749118253, -33.107589985066795 15.01146987181135, -33.312328708501866 14.848196188198125 M-33.312328708501866 14.848196188198125 C-33.54191147936746 14.639695190125249, -33.77149425023304 14.43119419205237, -34.237684736767974 14.007812326905697 M-33.312328708501866 14.848196188198125 C-33.65122952134574 14.540415436797458, -33.99013033418962 14.232634685396789, -34.237684736767974 14.007812326905697 M-34.237684736767974 14.007812326905697 C-34.46603555052511 13.772021363750977, -34.69438636428225 13.536230400596256, -35.107295942968655 13.109867360095677 M-34.237684736767974 14.007812326905697 C-34.49645982730847 13.740605800092583, -34.75523491784897 13.473399273279467, -35.107295942968655 13.109867360095677 M-35.107295942968655 13.109867360095677 C-35.298756587470706 12.884966792644267, -35.490217231972764 12.660066225192857, -35.917588908126575 12.158051136245307 M-35.107295942968655 13.109867360095677 C-35.37630795547929 12.793870542983532, -35.645319967989934 12.477873725871387, -35.917588908126575 12.158051136245307 M-35.917588908126575 12.158051136245307 C-36.132217240554034 11.870468723835838, -36.3468455729815 11.582886311426368, -36.665233964640635 11.156274872382316 M-35.917588908126575 12.158051136245307 C-36.078527977591065 11.942407445013743, -36.239467047055555 11.72676375378218, -36.665233964640635 11.156274872382316 M-36.665233964640635 11.156274872382316 C-36.899812284775905 10.795899579555716, -37.13439060491118 10.435524286729116, -37.34715887860425 10.108655082055249 M-36.665233964640635 11.156274872382316 C-36.89631975174381 10.80126504816945, -37.127405538846986 10.446255223956584, -37.34715887860425 10.108655082055249 M-37.34715887860425 10.108655082055249 C-37.58827200816107 9.680534305175232, -37.82938513771789 9.252413528295218, -37.960561474273504 9.019496659696289 M-37.34715887860425 10.108655082055249 C-37.48189204053603 9.869422709833296, -37.61662520246782 9.630190337611344, -37.960561474273504 9.019496659696289 M-37.960561474273504 9.019496659696289 C-38.092631474501125 8.745250478378322, -38.22470147472875 8.471004297060356, -38.50292114880834 7.893275190886686 M-37.960561474273504 9.019496659696289 C-38.160344509675866 8.604642912011112, -38.36012754507823 8.189789164325935, -38.50292114880834 7.893275190886686 M-38.50292114880834 7.893275190886686 C-38.69017446188498 7.430755887290872, -38.87742777496162 6.968236583695059, -38.972009229970325 6.73461856121551 M-38.50292114880834 7.893275190886686 C-38.648538073177036 7.533598572384299, -38.79415499754573 7.173921953881911, -38.972009229970325 6.73461856121551 M-38.972009229970325 6.73461856121551 C-39.1093407796813 6.3209978142970265, -39.246672329392275 5.907377067378544, -39.36589813421488 5.5482879393051325 M-38.972009229970325 6.73461856121551 C-39.05624797579561 6.480904880411225, -39.14048672162088 6.22719119960694, -39.36589813421488 5.5482879393051325 M-39.36589813421488 5.5482879393051325 C-39.4576305798858 5.198472366868472, -39.54936302555672 4.848656794431812, -39.68296928754556 4.339158212148136 M-39.36589813421488 5.5482879393051325 C-39.43685932807356 5.277682152346035, -39.50782052193224 5.007076365386938, -39.68296928754556 4.339158212148136 M-39.68296928754556 4.339158212148136 C-39.73845594588111 4.054245948704489, -39.79394260421665 3.7693336852608423, -39.921919776581774 3.112197953150904 M-39.68296928754556 4.339158212148136 C-39.74824500922513 4.003981177352201, -39.8135207309047 3.6688041425562656, -39.921919776581774 3.112197953150904 M-39.921919776581774 3.112197953150904 C-39.956603897429936 2.8431947610069277, -39.9912880182781 2.5741915688629518, -40.08176770250937 1.872449005199809 M-39.921919776581774 3.112197953150904 C-39.978327674747575 2.6747094339763513, -40.03473557291338 2.2372209148017985, -40.08176770250937 1.872449005199809 M-40.08176770250937 1.872449005199809 C-40.104589541494605 1.516980441547906, -40.127411380479835 1.161511877896003, -40.16185621591342 0.6250057626472781 M-40.08176770250937 1.872449005199809 C-40.11022244052388 1.4292434923726751, -40.13867717853839 0.986037979545541, -40.16185621591342 0.6250057626472781 M-40.16185621591342 0.6250057626472781 C-40.16185621591342 0.34872064669539127, -40.16185621591342 0.0724355307435044, -40.16185621591342 -0.6250057626472687 M-40.16185621591342 0.6250057626472781 C-40.16185621591342 0.30897153153973106, -40.16185621591342 -0.007062699567816022, -40.16185621591342 -0.6250057626472687 M-40.16185621591342 -0.6250057626472687 C-40.14326361761604 -0.9146004888041336, -40.12467101931866 -1.2041952149609985, -40.08176770250937 -1.8724490051997822 M-40.16185621591342 -0.6250057626472687 C-40.14242503486004 -0.9276620921206112, -40.12299385380667 -1.2303184215939538, -40.08176770250937 -1.8724490051997822 M-40.08176770250937 -1.8724490051997822 C-40.03055512982302 -2.2696436058887173, -39.97934255713668 -2.666838206577653, -39.921919776581774 -3.112197953150895 M-40.08176770250937 -1.8724490051997822 C-40.02818716480809 -2.288009074936986, -39.9746066271068 -2.7035691446741903, -39.921919776581774 -3.112197953150895 M-39.921919776581774 -3.112197953150895 C-39.84600396103327 -3.502009621179173, -39.77008814548476 -3.891821289207451, -39.68296928754556 -4.339158212148126 M-39.921919776581774 -3.112197953150895 C-39.86773150081669 -3.390443296508467, -39.8135432250516 -3.6686886398660383, -39.68296928754556 -4.339158212148126 M-39.68296928754556 -4.339158212148126 C-39.562939725151026 -4.79688295469991, -39.44291016275649 -5.2546076972516955, -39.36589813421489 -5.548287939305123 M-39.68296928754556 -4.339158212148126 C-39.6128656642047 -4.606493711049379, -39.54276204086384 -4.873829209950632, -39.36589813421489 -5.548287939305123 M-39.36589813421489 -5.548287939305123 C-39.26142181363206 -5.862953970859479, -39.15694549304924 -6.1776200024138355, -38.97200922997033 -6.734618561215485 M-39.36589813421489 -5.548287939305123 C-39.21235260945895 -6.0107425957129506, -39.058807084703 -6.473197252120779, -38.97200922997033 -6.734618561215485 M-38.97200922997033 -6.734618561215485 C-38.800244350978026 -7.158881133174492, -38.62847947198573 -7.583143705133499, -38.50292114880834 -7.893275190886676 M-38.97200922997033 -6.734618561215485 C-38.85523780420574 -7.023046240475946, -38.73846637844116 -7.311473919736407, -38.50292114880834 -7.893275190886676 M-38.50292114880834 -7.893275190886676 C-38.378979628870596 -8.150642408961108, -38.255038108932844 -8.408009627035538, -37.960561474273504 -9.019496659696282 M-38.50292114880834 -7.893275190886676 C-38.36934536143876 -8.170648171423615, -38.235769574069174 -8.448021151960551, -37.960561474273504 -9.019496659696282 M-37.960561474273504 -9.019496659696282 C-37.78367401187672 -9.333578260979628, -37.606786549479935 -9.647659862262975, -37.34715887860425 -10.108655082055243 M-37.960561474273504 -9.019496659696282 C-37.759103543233294 -9.377205616085769, -37.55764561219309 -9.734914572475258, -37.34715887860425 -10.108655082055243 M-37.34715887860425 -10.108655082055243 C-37.10512658280317 -10.480481683177242, -36.8630942870021 -10.85230828429924, -36.66523396464064 -11.156274872382308 M-37.34715887860425 -10.108655082055243 C-37.105556535865425 -10.479821159815062, -36.8639541931266 -10.85098723757488, -36.66523396464064 -11.156274872382308 M-36.66523396464064 -11.156274872382308 C-36.37581934454828 -11.544064097091777, -36.086404724455925 -11.931853321801244, -35.91758890812659 -12.158051136245302 M-36.66523396464064 -11.156274872382308 C-36.49065379591493 -11.390196393894206, -36.31607362718922 -11.624117915406101, -35.91758890812659 -12.158051136245302 M-35.91758890812659 -12.158051136245302 C-35.689539317251125 -12.425931162076942, -35.46148972637567 -12.693811187908585, -35.10729594296866 -13.10986736009567 M-35.91758890812659 -12.158051136245302 C-35.64777652192639 -12.474988117835759, -35.37796413572618 -12.791925099426216, -35.10729594296866 -13.10986736009567 M-35.10729594296866 -13.10986736009567 C-34.8186642768081 -13.407903252506948, -34.53003261064754 -13.705939144918224, -34.237684736767996 -14.007812326905677 M-35.10729594296866 -13.10986736009567 C-34.880110480814544 -13.344455002043121, -34.65292501866043 -13.579042643990572, -34.237684736767996 -14.007812326905677 M-34.237684736767996 -14.007812326905677 C-33.95795698041989 -14.261853674030169, -33.67822922407178 -14.51589502115466, -33.31232870850189 -14.848196188198107 M-34.237684736767996 -14.007812326905677 C-33.88447284267148 -14.328590023649534, -33.53126094857496 -14.64936772039339, -33.31232870850189 -14.848196188198107 M-33.31232870850189 -14.848196188198107 C-32.92960642630577 -15.153407023581856, -32.54688414410965 -15.458617858965605, -32.33503034457872 -15.627565626425149 M-33.31232870850189 -14.848196188198107 C-32.96395368060725 -15.12601600229525, -32.61557865271261 -15.403835816392393, -32.33503034457872 -15.627565626425149 M-32.33503034457872 -15.627565626425149 C-32.113364111751075 -15.782190394669149, -31.891697878923438 -15.936815162913149, -31.30980557360571 -16.342718045390885 M-32.33503034457872 -15.627565626425149 C-32.09025469800529 -15.798310521307815, -31.84547905143185 -15.969055416190482, -31.30980557360571 -16.342718045390885 M-31.30980557360571 -16.342718045390885 C-30.95142560582419 -16.559970087934506, -30.593045638042668 -16.777222130478123, -30.24086726407679 -16.99071473040609 M-31.30980557360571 -16.342718045390885 C-30.902652523010406 -16.589536617358668, -30.4954994724151 -16.836355189326454, -30.24086726407679 -16.99071473040609 M-30.24086726407679 -16.99071473040609 C-29.988466972707357 -17.122391800743422, -29.736066681337924 -17.25406887108075, -29.132607912792388 -17.56889292409717 M-30.24086726407679 -16.99071473040609 C-29.911705297119205 -17.16243831772956, -29.582543330161617 -17.334161905053033, -29.132607912792388 -17.56889292409717 M-29.132607912792388 -17.56889292409717 C-28.756150521881878 -17.73553944384152, -28.379693130971372 -17.902185963585875, -27.989581595147804 -18.07487676824742 M-29.132607912792388 -17.56889292409717 C-28.88600281051191 -17.67805768759629, -28.63939770823143 -17.787222451095413, -27.989581595147804 -18.07487676824742 M-27.989581595147804 -18.07487676824742 C-27.642035213014168 -18.20277704955614, -27.29448883088053 -18.330677330864855, -26.81648525146062 -18.506587066708033 M-27.989581595147804 -18.07487676824742 C-27.54952856960858 -18.23682034945143, -27.109475544069358 -18.39876393065544, -26.81648525146062 -18.506587066708033 M-26.81648525146062 -18.506587066708033 C-26.549366767720585 -18.585866430548542, -26.28224828398055 -18.66514579438905, -25.618139386235413 -18.862249829261067 M-26.81648525146062 -18.506587066708033 C-26.446389051191304 -18.616429676273366, -26.07629285092199 -18.726272285838704, -25.618139386235413 -18.862249829261067 M-25.618139386235413 -18.862249829261067 C-25.21960959776088 -18.95321165283047, -24.821079809286346 -19.044173476399866, -24.399468259676766 -19.140403561325773 M-25.618139386235413 -18.862249829261067 C-25.16672611342996 -18.965281963032012, -24.715312840624502 -19.06831409680296, -24.399468259676766 -19.140403561325773 M-24.399468259676766 -19.140403561325773 C-24.13337061693511 -19.183424164586203, -23.867272974193455 -19.226444767846637, -23.165479652847882 -19.3399052695533 M-24.399468259676766 -19.140403561325773 C-24.14583674268799 -19.181408738050727, -23.892205225699215 -19.222413914775682, -23.165479652847882 -19.3399052695533 M-23.165479652847882 -19.3399052695533 C-22.676356898762524 -19.387090353383737, -22.187234144677166 -19.434275437214175, -21.921244289623903 -19.45993515863156 M-23.165479652847882 -19.3399052695533 C-22.74092283454821 -19.38086175521039, -22.31636601624854 -19.42181824086748, -21.921244289623903 -19.45993515863156 M-21.921244289623903 -19.45993515863156 C-21.533894611728623 -19.47235670887125, -21.146544933833347 -19.484778259110943, -20.671875000000007 -19.5 M-21.921244289623903 -19.45993515863156 C-21.57434998491533 -19.47105938379476, -21.22745568020676 -19.48218360895796, -20.671875000000007 -19.5 M-20.671875000000007 -19.5 C-20.671875000000004 -19.5, -20.671875000000004 -19.5, -20.671875 -19.5 M-20.671875000000007 -19.5 C-20.671875000000004 -19.5, -20.671875000000004 -19.5, -20.671875 -19.5" stroke="#0D1117" stroke-width="1.3" fill="none" stroke-dasharray="0 0" style="fill:#F59E0B !important;stroke:#0D1117 !important"/></g><g class="label" style="color:#0D1117 !important;font-weight:bold !important" transform="translate(-27.796875, -12)"><rect/><foreignObject width="55.59375" height="24"><div style="color: rgb(13, 17, 23) !important; font-weight: bold !important; display: table-cell; white-space: nowrap; line-height: 1.5; max-width: 200px; text-align: center;" xmlns="http://www.w3.org/1999/xhtml"><span style="color:#0D1117 !important;font-weight:bold !important" class="nodeLabel"><p>Thando</p></span></div></foreignObject></g></g><g class="node default system" id="my-svg-flowchart-App-1" data-look="classic" transform="translate(1131.296875, 47)"><rect class="basic label-container" style="fill:#7C3AED !important;stroke:#0D1117 !important" x="-109.375" y="-39" width="218.75" height="78"/><g class="label" style="color:#FFFFFF !important" transform="translate(-79.375, -24)"><rect/><foreignObject width="158.75" height="48"><div style="color: rgb(255, 255, 255) !important; display: table-cell; white-space: nowrap; line-height: 1.5; max-width: 200px; text-align: center;" xmlns="http://www.w3.org/1999/xhtml"><span style="color:#FFFFFF !important" class="nodeLabel"><p>Senior Java Quest App<br />(index.html)</p></span></div></foreignObject></g></g><g class="node default store" id="my-svg-flowchart-LS-2" data-look="classic" transform="translate(1522.4453125, 239.51658630371094)"><path d="M0,11.315429353404037 a51.6796875,11.315429353404037 0,0,0 103.359375,0 a51.6796875,11.315429353404037 0,0,0 -103.359375,0 l0,74.31542935340404 a51.6796875,11.315429353404037 0,0,0 103.359375,0 l0,-74.31542935340404" class="basic label-container outer-path" style="fill:#10B981 !important;stroke:#0D1117 !important" transform="translate(-51.6796875, -48.473144030106056)"/><g class="label" style="color:#0D1117 !important" transform="translate(-44.1796875, -14)"><rect/><foreignObject width="88.359375" height="48"><div style="color: rgb(13, 17, 23) !important; display: table-cell; white-space: nowrap; line-height: 1.5; max-width: 200px; text-align: center;" xmlns="http://www.w3.org/1999/xhtml"><span style="color:#0D1117 !important" class="nodeLabel"><p>Browser<br />localStorage</p></span></div></foreignObject></g></g><g class="node default store" id="my-svg-flowchart-GH-3" data-look="classic" transform="translate(1522.4453125, 86.25)"><path d="M0,15.528957711796185 a102.4765625,15.528957711796185 0,0,0 204.953125,0 a102.4765625,15.528957711796185 0,0,0 -204.953125,0 l0,78.52895771179618 a102.4765625,15.528957711796185 0,0,0 204.953125,0 l0,-78.52895771179618" class="basic label-container outer-path" style="fill:#10B981 !important;stroke:#0D1117 !important" transform="translate(-102.4765625, -54.79343656769427)"/><g class="label" style="color:#0D1117 !important" transform="translate(-94.9765625, -14)"><rect/><foreignObject width="189.953125" height="48"><div style="color: rgb(13, 17, 23) !important; display: table-cell; white-space: nowrap; line-height: 1.5; max-width: 200px; text-align: center;" xmlns="http://www.w3.org/1999/xhtml"><span style="color:#0D1117 !important" class="nodeLabel"><p>GitHub Repo<br />tzone85/senior-java-quest</p></span></div></foreignObject></g></g><g class="node default ext" id="my-svg-flowchart-Cron-4" data-look="classic" transform="translate(107.3828125, 86.25)"><rect class="basic label-container" style="fill:#0EA5E9 !important;stroke:#0D1117 !important" x="-99.3828125" y="-39" width="198.765625" height="78"/><g class="label" style="color:#FFFFFF !important" transform="translate(-69.3828125, -24)"><rect/><foreignObject width="138.765625" height="48"><div style="color: rgb(255, 255, 255) !important; display: table-cell; white-space: nowrap; line-height: 1.5; max-width: 200px; text-align: center;" xmlns="http://www.w3.org/1999/xhtml"><span style="color:#FFFFFF !important" class="nodeLabel"><p>Scheduled Routines<br />(claude.ai/code)</p></span></div></foreignObject></g></g><g class="node default ext" id="my-svg-flowchart-Notif-5" data-look="classic" transform="translate(469.828125, 47)"><rect class="basic label-container" style="fill:#0EA5E9 !important;stroke:#0D1117 !important" x="-75.609375" y="-39" width="151.21875" height="78"/><g class="label" style="color:#FFFFFF !important" transform="translate(-45.609375, -24)"><rect/><foreignObject width="91.21875" height="48"><div style="color: rgb(255, 255, 255) !important; display: table-cell; white-space: nowrap; line-height: 1.5; max-width: 200px; text-align: center;" xmlns="http://www.w3.org/1999/xhtml"><span style="color:#FFFFFF !important" class="nodeLabel"><p>claude.ai<br />Notifications</p></span></div></foreignObject></g></g></g></g></g><defs><filter id="my-svg-drop-shadow" height="130%" width="130%"><feDropShadow dx="4" dy="4" stdDeviation="0" flood-opacity="0.06" flood-color="#000000"/></filter></defs><defs><filter id="my-svg-drop-shadow-small" height="150%" width="150%"><feDropShadow dx="2" dy="2" stdDeviation="0" flood-opacity="0.06" flood-color="#000000"/></filter></defs></svg>